<?xml version="1.0" encoding="UTF-8"?>
<svg version="1.1" xmlns="http://www.w3.org/2000/svg" width="304" height="380">
<path d="M0 0 C100.32 0 200.64 0 304 0 C304 125.4 304 250.8 304 380 C203.68 380 103.36 380 0 380 C0 254.6 0 129.2 0 0 Z " fill="#6E8394" transform="translate(0,0)"/>
<path d="M0 0 C6.28843412 0.83484384 9.07010542 4.26162979 13 9 C22.08930314 21.31552737 27.35055614 34.11710477 31.25 48.875 C31.6033455 50.17991013 31.95750848 51.48459919 32.3125 52.7890625 C37.3647895 71.5213974 37.3647895 71.5213974 36 79 C34.4700619 80.8704032 32.85890217 82.02967895 30.890625 83.421875 C26.90124189 86.75185594 24.39138545 91.84680642 23.75366211 96.98461914 C23.48219422 103.18891902 25.11329328 108.12341313 27.4375 113.8125 C27.79078369 114.70888184 28.14406738 115.60526367 28.50805664 116.52880859 C32.10605244 125.53362869 36.0915606 134.36893721 40.18725586 143.15673828 C41.51538516 146.16886691 42.17574567 148.73280927 42.25 152 C42.28867187 153.0209375 42.28867187 153.0209375 42.328125 154.0625 C41.88023596 156.70717817 41.15228534 157.39822815 39 159 C36.02905273 159.40063477 36.02905273 159.40063477 32.43359375 159.44140625 C30.4990332 159.48104492 30.4990332 159.48104492 28.52539062 159.52148438 C27.16277327 159.53638263 25.80014183 159.55004027 24.4375 159.5625 C21.76902794 159.59378968 19.10185285 159.63934917 16.43359375 159.69140625 C15.24822021 159.70373291 14.06284668 159.71605957 12.84155273 159.72875977 C9.86713095 159.70839188 9.86713095 159.70839188 8 162 C8.32971479 165.29714793 8.6226839 166.6226839 11 169 C13.56916657 169.30599063 16.04758384 169.51087087 18.625 169.625 C19.33140625 169.66367188 20.0378125 169.70234375 20.765625 169.7421875 C22.50998524 169.83647724 24.25495691 169.91932891 26 170 C26.24809955 172.6244748 26.4741699 175.24767145 26.6875 177.875 C26.76033203 178.62136719 26.83316406 179.36773437 26.90820312 180.13671875 C27.07421875 182.3046875 27.07421875 182.3046875 27 186 C23.3200283 188.45331447 21.38644928 188.27914909 16.99609375 188.34375 C16.31700455 188.3583728 15.63791534 188.37299561 14.93824768 188.38806152 C12.03592448 188.4502847 9.13339122 188.48999161 6.23071289 188.53173828 C4.11061123 188.56542458 1.99096461 188.6105385 -0.12890625 188.65625 C-1.39806885 188.67494141 -2.66723145 188.69363281 -3.97485352 188.71289062 C-7.11117669 188.68642074 -7.11117669 188.68642074 -9 191 C-8.505 193.475 -8.505 193.475 -8 196 C7.84 196.495 7.84 196.495 24 197 C24 199.64 24 202.28 24 205 C14.1 205.495 14.1 205.495 4 206 C4 207.98 4 209.96 4 212 C6.58926331 214.58926331 8.02705279 214.37398043 11.625 214.625 C13.12933594 214.73714844 13.12933594 214.73714844 14.6640625 214.8515625 C15.82035156 214.92503906 15.82035156 214.92503906 17 215 C17.08165496 217.20770805 17.13948488 219.41630425 17.1875 221.625 C17.22230469 222.85476563 17.25710937 224.08453125 17.29296875 225.3515625 C16.87242992 230.58867273 15.32652864 233.80288878 11.4375 237.3125 C4.81348842 241.89835417 -5.34396924 240.93939635 -13.10791016 239.64990234 C-22.2588857 237.56077288 -30.60466974 233.40386668 -38.99487305 229.31445312 C-49.99057703 223.98944031 -60.51597309 220.86439762 -72.6640625 219.52734375 C-77.97321559 218.68807482 -82.15161261 216.84838739 -86 213 C-86.1953125 210.8359375 -86.1953125 210.8359375 -86.125 208.375 C-86.10695312 207.55773437 -86.08890625 206.74046875 -86.0703125 205.8984375 C-86.04710937 205.27195313 -86.02390625 204.64546875 -86 204 C-84.88439697 204.00523682 -83.76879395 204.01047363 -82.61938477 204.01586914 C-78.49520667 204.03391775 -74.37103209 204.04543149 -70.24682617 204.05493164 C-68.45905979 204.05997218 -66.67129755 204.06680454 -64.88354492 204.07543945 C-62.31948832 204.0875173 -59.75548603 204.09323094 -57.19140625 204.09765625 C-55.98515343 204.10539818 -55.98515343 204.10539818 -54.75453186 204.11329651 C-52.83598285 204.11349215 -50.91754632 204.06201983 -49 204 C-47.29613365 202.29613365 -47.8461929 200.0960357 -47.82299805 197.76513672 C-47.81016281 196.64662323 -47.79732758 195.52810974 -47.78410339 194.3757019 C-47.77671646 193.15601715 -47.76932953 191.9363324 -47.76171875 190.6796875 C-47.753647 189.4325296 -47.74557526 188.1853717 -47.73725891 186.90042114 C-47.72339414 184.25226101 -47.71238606 181.60422636 -47.70483398 178.95605469 C-47.69599438 176.24586358 -47.67517575 173.53618863 -47.64331055 170.82617188 C-47.60064663 166.92301925 -47.58446275 163.02054437 -47.57421875 159.1171875 C-47.55671066 157.90964813 -47.53920258 156.70210876 -47.52116394 155.45797729 C-47.53854165 148.70172716 -47.97755452 144.49584624 -52 139 C-52.556875 138.154375 -53.11375 137.30875 -53.6875 136.4375 C-61.84635071 127.83763033 -70.79942479 126.15718394 -82.1875 125.34375 C-84 125 -84 125 -86 123 C-86.26991906 120.31160615 -86.08737357 117.70858064 -86 115 C-83.03 114.01 -83.03 114.01 -80 113 C-79.34 109.7 -78.68 106.4 -78 103 C-94.335 103.495 -94.335 103.495 -111 104 C-111 99.38 -111 94.76 -111 90 C-108.34602173 89.98598145 -108.34602173 89.98598145 -105.63842773 89.97167969 C-99.73107435 89.93586848 -93.82402941 89.88189474 -87.91694546 89.81609726 C-84.34248201 89.77692416 -80.76825379 89.74459074 -77.19360352 89.72900391 C-73.73084255 89.71363462 -70.2687297 89.67884391 -66.80626106 89.63169098 C-64.87089622 89.61007098 -62.93534734 89.60754385 -60.99986267 89.60565186 C-52.92726049 89.47519013 -45.98739504 88.21788206 -38.31376648 85.90202332 C-33.62059219 84.6245185 -29.20905237 84.4426155 -24.375 84.5625 C-23.10849609 84.55186523 -23.10849609 84.55186523 -21.81640625 84.54101562 C-13.39332954 84.6272361 -13.39332954 84.6272361 -10 88 C-9.51171875 91.35546875 -9.51171875 91.35546875 -9.6875 95.1875 C-9.73261719 96.45980469 -9.77773437 97.73210937 -9.82421875 99.04296875 C-9.88222656 100.01878906 -9.94023437 100.99460937 -10 102 C-15.36081478 104.43320888 -20.18934003 104.59222384 -26 104 C-28.0302589 103.06295743 -30.03696582 102.07074592 -32 101 C-35.70940775 100.66534111 -35.70940775 100.66534111 -39 101 C-40.38600493 102.15479103 -40.38600493 102.15479103 -40.0625 105.3125 C-39.40980106 108.96517618 -39.40980106 108.96517618 -37.25390625 110.31640625 C-28.95929379 114.44088327 -19.46921421 115.70756031 -10.41015625 113.31640625 C-4.34825073 110.51233863 -0.55555452 105.96614311 1.8125 99.75 C3.24712292 94.83247751 3.88956444 90.07829019 3 85 C0.24442686 80.11107991 -2.77002907 78.25511966 -8.07061768 76.59329224 C-14.52540581 75.28599423 -21.18618688 75.68466845 -27.7421875 75.77734375 C-29.35880564 75.78803628 -30.97543539 75.79708789 -32.59207153 75.80458069 C-36.82259986 75.82723767 -41.05279094 75.86624942 -45.28314209 75.9105835 C-52.07418423 75.98110862 -58.86522228 76.03602623 -65.65652847 76.07293892 C-68.02484971 76.08963342 -70.39277715 76.11917486 -72.76095581 76.14964294 C-74.20765826 76.16010005 -75.65436441 76.17006073 -77.10107422 76.17944336 C-78.99561844 76.19967812 -78.99561844 76.19967812 -80.92843628 76.22032166 C-84 76 -84 76 -87 74 C-87.4375 67.875 -87.4375 67.875 -86 65 C-85.21351074 64.98541748 -84.42702148 64.97083496 -83.61669922 64.95581055 C-80.03565042 64.88110637 -76.45551089 64.78451793 -72.875 64.6875 C-71.6375 64.66494141 -70.4 64.64238281 -69.125 64.61914062 C-67.92617187 64.58369141 -66.72734375 64.54824219 -65.4921875 64.51171875 C-63.84259033 64.47244263 -63.84259033 64.47244263 -62.15966797 64.43237305 C-57.78268363 63.83342086 -54.25021836 62.47294134 -51.35546875 59.0625 C-50.77732422 58.0415625 -50.77732422 58.0415625 -50.1875 57 C-49.78917969 56.319375 -49.39085937 55.63875 -48.98046875 54.9375 C-47.45723199 51.92743852 -46.85861495 49.31368397 -46.68359375 45.98828125 C-46.64169922 45.23095703 -46.59980469 44.47363281 -46.55664062 43.69335938 C-46.51732422 42.90767578 -46.47800781 42.12199219 -46.4375 41.3125 C-46.37272461 40.11657227 -46.37272461 40.11657227 -46.30664062 38.89648438 C-46.20072632 36.93118553 -46.09987449 34.96561504 -46 33 C-43.03 32.01 -40.06 31.02 -37 30 C-38.08007324 29.98018066 -39.16014648 29.96036133 -40.27294922 29.93994141 C-44.27253913 29.86398377 -48.27176052 29.77525184 -52.27099609 29.68261719 C-54.00334407 29.64428659 -55.73577274 29.60944094 -57.46826172 29.578125 C-59.95569749 29.53256235 -62.44257566 29.47455497 -64.9296875 29.4140625 C-65.70682098 29.40251129 -66.48395447 29.39096008 -67.28463745 29.37905884 C-72.77225659 29.22774341 -72.77225659 29.22774341 -75 27 C-75.1875 24.4375 -75.1875 24.4375 -75 22 C-73.39284068 20.39284068 -71.66355325 20.85910595 -69.43945312 20.84228516 C-68.46754028 20.83202301 -67.49562744 20.82176086 -66.4942627 20.81118774 C-65.43396851 20.80388641 -64.37367432 20.79658508 -63.28125 20.7890625 C-61.04686795 20.7609723 -58.81249305 20.73230772 -56.578125 20.703125 C-53.04752974 20.66200326 -49.51706506 20.62512806 -45.98632812 20.59863281 C-42.58435126 20.57087329 -39.18298754 20.52497545 -35.78125 20.4765625 C-34.73714966 20.47330963 -33.69304932 20.47005676 -32.61730957 20.46670532 C-23.92287857 20.32225476 -16.32591174 19.0212071 -9.7734375 12.9609375 C-6.13251596 8.93507271 -3.0635168 4.47193881 0 0 Z " fill="#F7F9F8" transform="translate(232,38)"/>
<path d="M0 0 C11.64301366 5.13811255 18.2551323 20.5826412 22.79541016 31.74365234 C24.78787588 37.12985173 26.23454603 42.62007905 27.625 48.1875 C27.92349854 49.36715332 28.22199707 50.54680664 28.52954102 51.76220703 C30.7762654 60.78985307 32.85283904 69.76337638 34 79 C34.14953125 80.14210938 34.2990625 81.28421875 34.453125 82.4609375 C35.03232137 90.58899329 32.73224329 95.06655676 27.75 101.44140625 C24.29629736 108.4644489 25.30377025 115.67894391 27.7578125 122.9296875 C28.52582765 124.91970961 29.31546022 126.90150548 30.125 128.875 C30.53298828 129.91422607 30.94097656 130.95345215 31.36132812 132.02416992 C34.08008351 138.89866065 36.91306002 145.72866054 39.90625 152.48828125 C42.19634706 157.74732558 42.62932064 162.31838693 42 168 C39.65530102 172.86975942 36.7324552 175.44447419 32 178 C30.00786112 178.37748353 28.00781982 178.71756295 26 179 C26.01047363 179.58491211 26.02094727 180.16982422 26.03173828 180.77246094 C26.07340264 183.43159663 26.09935901 186.09066353 26.125 188.75 C26.14175781 189.67039063 26.15851563 190.59078125 26.17578125 191.5390625 C26.18222656 192.42851562 26.18867188 193.31796875 26.1953125 194.234375 C26.20578613 195.05131836 26.21625977 195.86826172 26.22705078 196.70996094 C25.97677245 199.23427352 25.19379878 200.78622559 24 203 C23.74826656 205.65764487 23.68684907 208.28464975 23.63671875 210.953125 C22.99501953 214.02383294 22.24864233 215.24116213 20.484375 217.7421875 C17.37529808 222.42826811 17.45396318 226.38867252 17.5625 231.875 C17.42260732 239.85033991 16.86912702 246.04598891 11 252 C5.78106342 256.22944022 1.40472377 259.08987336 -5.34765625 259.2109375 C-6.42853516 259.23929687 -7.50941406 259.26765625 -8.62304688 259.296875 C-10.88852001 259.34833379 -13.15416494 259.39278163 -15.41992188 259.4296875 C-21.41724233 259.59992486 -26.51084081 260.09920976 -32.09545898 262.36572266 C-34 263 -34 263 -38 263 C-38.07734375 262.09507812 -38.07734375 262.09507812 -38.15625 261.171875 C-38.76089888 256.4182219 -38.76089888 256.4182219 -41.4921875 252.6875 C-43.6245705 251.62573253 -45.75470231 250.79863943 -48 250 C-50.15132698 249.18095339 -52.29702633 248.34700508 -54.4375 247.5 C-55.98244141 246.92765625 -55.98244141 246.92765625 -57.55859375 246.34375 C-60 245 -60 245 -60.9296875 243.01171875 C-61.03488509 240.00189878 -59.73821967 238.38200473 -58 236 C-57.34 235.67 -56.68 235.34 -56 235 C-54.66666667 235.66666667 -53.33333333 236.33333333 -52 237 C-50.66775391 237.17789063 -50.66775391 237.17789063 -49.30859375 237.359375 C-45.45782616 238.10497817 -42.28225686 239.62957451 -38.8125 241.375 C-29.39469499 245.87707518 -21.17708499 248.23595984 -10.6875 248.4375 C-9.92203857 248.45997803 -9.15657715 248.48245605 -8.36791992 248.50561523 C-3.15178918 248.48335579 -0.03462728 247.58170014 4 244 C6.89348905 239.59498683 7.44165874 235.83683472 7.6875 230.625 C7.75324219 229.37976563 7.81898438 228.13453125 7.88671875 226.8515625 C7.92410156 225.91054687 7.96148437 224.96953125 8 224 C7.24074219 224.03480469 6.48148437 224.06960937 5.69921875 224.10546875 C4.70535156 224.13253906 3.71148437 224.15960938 2.6875 224.1875 C1.70136719 224.22230469 0.71523437 224.25710937 -0.30078125 224.29296875 C-3 224 -3 224 -4.83984375 222.68359375 C-6.59069925 220.14278998 -6.26055335 217.99636356 -6 215 C-5 214 -5 214 -3.05053711 213.88647461 C-2.2178833 213.89171143 -1.38522949 213.89694824 -0.52734375 213.90234375 C0.37177734 213.90556641 1.27089844 213.90878906 2.19726562 213.91210938 C3.14279297 213.92048828 4.08832031 213.92886719 5.0625 213.9375 C6.4865918 213.94426758 6.4865918 213.94426758 7.93945312 213.95117188 C10.29303065 213.9629989 12.64648477 213.97947975 15 214 C15 211.36 15 208.72 15 206 C14.04109863 206.01047363 13.08219727 206.02094727 12.09423828 206.03173828 C8.54219281 206.06789328 4.99016366 206.09088393 1.43798828 206.10986328 C-0.10045098 206.11993118 -1.63887107 206.13358646 -3.17724609 206.15087891 C-5.38644133 206.17509317 -7.59538395 206.18647491 -9.8046875 206.1953125 C-10.49432587 206.20563507 -11.18396423 206.21595764 -11.89450073 206.22659302 C-13.59800906 206.22699478 -15.30085943 206.12191026 -17 206 C-17.99 205.01 -17.99 205.01 -19 204 C-18.67028521 200.70285207 -18.3773161 199.3773161 -16 197 C-12.95898437 196.69702148 -12.95898437 196.69702148 -9.09375 196.62109375 C-8.41324585 196.60409927 -7.7327417 196.5871048 -7.03161621 196.56959534 C-4.85450544 196.51640946 -2.67741357 196.47615089 -0.5 196.4375 C1.67731505 196.39356961 3.85448233 196.34684972 6.03161621 196.29469299 C8.00726939 196.24813188 9.98313025 196.21064997 11.95898438 196.17358398 C14.91800657 196.20579465 14.91800657 196.20579465 17 195 C17 189.72 17 184.44 17 179 C12.24271128 179.15756726 12.24271128 179.15756726 7.48730469 179.36035156 C4.05414636 179.41760165 2.28867656 179.2144713 -0.4921875 177.1484375 C-2 175 -2 175 -1.875 172.375 C-1 170 -1 170 1 168 C3.85742188 167.71289062 3.85742188 167.71289062 7.46875 167.65625 C8.76167969 167.62660156 10.05460937 167.59695312 11.38671875 167.56640625 C13.44739848 167.53146279 15.50811448 167.49987552 17.56884766 167.46826172 C19.55646267 167.43455724 21.54387169 167.38932298 23.53125 167.34375 C24.72298828 167.32505859 25.91472656 167.30636719 27.14257812 167.28710938 C30.13059673 167.29131733 30.13059673 167.29131733 32 165 C32.89576163 158.08983882 30.73704012 153.22396752 27.89941406 146.99511719 C11.62895322 110.90331318 11.62895322 110.90331318 14.8828125 101.4296875 C16.90445808 96.94457976 18.77743648 93.91656932 22.8125 91.0625 C24.98518593 89.34522422 25.87040254 88.48901441 26.5859375 85.7890625 C26.92711932 77.0495589 24.31055314 68.35773143 22 60 C21.67854004 58.82993408 21.67854004 58.82993408 21.35058594 57.63623047 C16.77346948 41.32983669 10.74589105 25.37448929 -1.6953125 13.36328125 C-3.32837278 11.65687994 -3.50139677 10.27932907 -4 8 C-4.66 7.01 -5.32 6.02 -6 5 C-4.02 3.35 -2.04 1.7 0 0 Z " fill="#172E41" transform="translate(241,29)"/>
<path d="M0 0 C6.12237854 -0.62842228 11.67008592 -1.13564048 17.15185547 2.10205078 C21.34877546 5.7902532 25.58615639 9.61035437 26.22439575 15.42034912 C26.21773392 16.6061557 26.21773392 16.6061557 26.2109375 17.81591797 C26.21078644 18.71654968 26.21063538 19.6171814 26.21047974 20.54510498 C26.20015717 21.50877991 26.18983459 22.47245483 26.17919922 23.46533203 C26.17636932 24.45849426 26.17353943 25.45165649 26.17062378 26.47491455 C26.15943815 29.64371847 26.13433634 32.81223868 26.10888672 35.98095703 C26.09885484 38.13069253 26.08972935 40.28043246 26.08154297 42.43017578 C26.05950413 47.69719949 26.02604256 52.96405799 25.98388672 58.23095703 C15.90742696 58.28598624 6.03399856 58.06846635 -4.01611328 57.23095703 C-4.01611328 52.61095703 -4.01611328 47.99095703 -4.01611328 43.23095703 C6.37888672 42.73595703 6.37888672 42.73595703 16.98388672 42.23095703 C16.98388672 38.93095703 16.98388672 35.63095703 16.98388672 32.23095703 C15.69611328 32.09818359 14.40833984 31.96541016 13.08154297 31.82861328 C11.4031331 31.65045804 9.72474899 31.47206011 8.04638672 31.29345703 C7.19625 31.20644531 6.34611328 31.11943359 5.47021484 31.02978516 C4.66132813 30.94277344 3.85244141 30.85576172 3.01904297 30.76611328 C2.27017822 30.68756104 1.52131348 30.60900879 0.74975586 30.52807617 C-1.01611328 30.23095703 -1.01611328 30.23095703 -2.01611328 29.23095703 C-2.20361328 25.79345703 -2.20361328 25.79345703 -2.01611328 22.23095703 C0.75430781 19.46053594 2.74922477 19.83299597 6.60888672 19.60595703 C7.79740234 19.53119141 8.98591797 19.45642578 10.21044922 19.37939453 C11.12568359 19.33041016 12.04091797 19.28142578 12.98388672 19.23095703 C12.98388672 15.93095703 12.98388672 12.63095703 12.98388672 9.23095703 C2.09388672 9.23095703 -8.79611328 9.23095703 -20.01611328 9.23095703 C-15.9609717 2.47238773 -15.9609717 2.47238773 -12.53955078 1.59814453 C-8.36893191 0.94616193 -4.1926469 0.48029111 0 0 Z " fill="#A2D1DA" transform="translate(149.01611328125,172.76904296875)"/>
<path d="M0 0 C2 2 2 2 2.75 4.75 C2 8 2 8 -0.0234375 9.41015625 C-1.73136513 10.33079592 -3.46651648 11.20293332 -5.2265625 12.01953125 C-12.42897963 17.16266574 -15.94982449 26.52092029 -19.625 34.3125 C-20.0890625 35.26833984 -20.553125 36.22417969 -21.03125 37.20898438 C-25.95353436 47.54717201 -29.21495862 58.10538413 -31.75 69.25 C-32.08064453 70.67119141 -32.08064453 70.67119141 -32.41796875 72.12109375 C-32.95041706 74.41293646 -33.47771701 76.70582361 -34 79 C-35.82202148 79.61083984 -35.82202148 79.61083984 -38 80 C-40.21065813 78.62326641 -42.07279749 77.27365276 -44.0625 75.625 C-44.92077393 74.93651978 -44.92077393 74.93651978 -45.79638672 74.23413086 C-46.973992 73.28672799 -48.14717328 72.33380047 -49.31591797 71.37548828 C-50.83245986 70.13683983 -52.37010899 68.92414261 -53.91015625 67.71484375 C-59.76016927 63.07691976 -64.99582242 58.06191078 -70.2109375 52.7265625 C-74.5476677 48.48701393 -79.2505409 44.76802106 -84 41 C-85 40 -85 40 -85.125 37.5 C-85 35 -85 35 -84 34 C-79.97356054 33.81481553 -77.96214882 34.23454403 -74.77392578 36.77099609 C-72.2979994 39.18265308 -69.91888412 41.65892578 -67.5625 44.1875 C-62.02981819 50.02043908 -56.65352749 55.44673987 -50 60 C-49.48228027 59.55897949 -48.96456055 59.11795898 -48.43115234 58.66357422 C-47.19628906 57.61165365 -45.96142578 56.55973307 -44.7265625 55.5078125 C-43.44163349 54.38567993 -42.20628025 53.20628025 -41 52 C-40.04057495 51.87117432 -40.04057495 51.87117432 -39.06176758 51.73974609 C-36.72906621 51.14574444 -36.72906621 51.14574444 -35.46362305 48.49072266 C-34.98449463 47.3929248 -34.50536621 46.29512695 -34.01171875 45.1640625 C-33.74543167 44.5700766 -33.47914459 43.9760907 -33.20478821 43.36410522 C-32.35162909 41.45694837 -31.51821246 39.54202875 -30.6875 37.625 C-18.8131963 10.46064143 -18.8131963 10.46064143 -8.5 3.75 C-7.7471875 3.24984375 -6.994375 2.7496875 -6.21875 2.234375 C-4.07621146 1.04239933 -2.43663282 0.2684426 0 0 Z " fill="#F4F7F7" transform="translate(200,285)"/>
<path d="M0 0 C1.24652344 -0.020625 2.49304688 -0.04125 3.77734375 -0.0625 C12.47021809 -0.09921753 20.36039938 0.08612554 26.9375 6.3125 C29.69180925 9.97212538 30.13639853 13.05187323 29.8203125 17.56640625 C28.4529424 25.80661028 26.02326979 31.58371304 19.47265625 36.91015625 C12.6021952 41.2985513 5.23715173 40.92225906 -2.625 40.25 C-7.69489413 38.8970984 -12.5553146 36.65433122 -15.625 32.25 C-16 29.625 -16 29.625 -15.625 27.25 C-13.625 25.25 -13.625 25.25 -10.375 24.9375 C-6.625 25.25 -6.625 25.25 -3.875 26.75 C2.18802367 29.54831862 8.97937173 28.6841011 15.375 27.25 C15.31514621 24.95759993 15.22640973 22.66593794 15.125 20.375 C15.07859375 19.09882813 15.0321875 17.82265625 14.984375 16.5078125 C14.68273437 14.89519531 14.68273437 14.89519531 14.375 13.25 C10.18577443 10.44039363 5.73667126 10.9088017 0.875 10.9375 C-0.02557129 10.93878906 -0.92614258 10.94007812 -1.85400391 10.94140625 C-7.81534429 11.02713468 -13.01026509 11.83765969 -18.7265625 13.58203125 C-24.2759162 14.86092543 -29.96588842 14.4760296 -35.625 14.25 C-35.625 13.92 -35.625 13.59 -35.625 13.25 C-29.685 12.755 -29.685 12.755 -23.625 12.25 C-23.625 9.61 -23.625 6.97 -23.625 4.25 C-30.555 3.755 -30.555 3.755 -37.625 3.25 C-37.625 2.92 -37.625 2.59 -37.625 2.25 C-37.00455811 2.22494385 -36.38411621 2.1998877 -35.74487305 2.17407227 C-32.93387603 2.05803279 -30.12320759 1.93534241 -27.3125 1.8125 C-25.84780273 1.75352539 -25.84780273 1.75352539 -24.35351562 1.69335938 C-23.41572266 1.65146484 -22.47792969 1.60957031 -21.51171875 1.56640625 C-20.21560669 1.51141968 -20.21560669 1.51141968 -18.89331055 1.45532227 C-2.94779445 0.01197074 -2.94779445 0.01197074 0 0 Z " fill="#1B3346" transform="translate(206.625,112.75)"/>
<path d="M0 0 C1.47906892 -0.02689216 2.95827483 -0.04634621 4.4375 -0.0625 C5.26121094 -0.07410156 6.08492187 -0.08570313 6.93359375 -0.09765625 C9 0 9 0 10 1 C10.32097751 3.31817089 10.51220956 5.63779357 10.71875 7.96875 C10.79065837 9.99180593 10.79065837 9.99180593 12 11 C13.90786398 11.1939486 15.81637731 11.38308414 17.72729492 11.54418945 C25.2551144 12.20764495 31.10459408 12.91521239 37 18 C38.051875 18.78375 39.10375 19.5675 40.1875 20.375 C44.62735755 24.51886705 48.80970653 29.12500098 49.12025452 35.44877625 C49.11803391 36.4191835 49.11581329 37.38959076 49.11352539 38.3894043 C49.11344986 39.49031906 49.11337433 40.59123383 49.11329651 41.72550964 C49.10813522 42.91308365 49.10297394 44.10065765 49.09765625 45.32421875 C49.0962413 46.54075638 49.09482635 47.75729401 49.09336853 49.01069641 C49.08776312 52.9029891 49.07520967 56.79522464 49.0625 60.6875 C49.0574857 63.32356688 49.05292267 65.95963466 49.04882812 68.59570312 C49.03779193 75.06382164 49.0210485 81.53190674 49 88 C47.63875 87.0409375 47.63875 87.0409375 46.25 86.0625 C43.52122303 84.33077615 42.02926548 83.62560917 39 83 C38.99453156 82.11796402 38.99453156 82.11796402 38.98895264 81.21810913 C38.94707028 75.08559969 38.87768453 68.95383467 38.79248047 62.82177734 C38.76429348 60.53474379 38.74306769 58.24761323 38.72900391 55.96044922 C38.70754362 52.66844094 38.66087529 49.37759622 38.609375 46.0859375 C38.60814636 45.06696381 38.60691772 44.04799011 38.60565186 42.99813843 C38.48550963 37.14571467 37.9574423 33.61157239 34 29 C33.475271 28.37859131 32.95054199 27.75718262 32.40991211 27.11694336 C28.3723597 23.35061201 25.52702259 22.39699989 20.0324707 22.47607422 C19.21738037 22.50459473 18.40229004 22.53311523 17.5625 22.5625 C7.05363157 22.40328999 7.05363157 22.40328999 2.8125 19.375 C-0.95264843 15.26363102 -0.6362863 10.24749221 -0.41088867 4.97998047 C-0.30010618 3.31803448 -0.15368607 1.65852881 0 0 Z " fill="#283E51" transform="translate(136,151)"/>
<path d="M0 0 C0.72979568 0.00404846 1.45959137 0.00809692 2.21150208 0.01226807 C2.98095154 0.00876343 3.750401 0.00525879 4.54316711 0.00164795 C7.09961354 -0.00718683 9.65578499 -0.00130783 12.2122345 0.00543213 C13.99427341 0.00408446 15.77631196 0.00214308 17.55834961 -0.00036621 C21.30523659 -0.00332107 25.05202847 0.00098614 28.79890442 0.01031494 C33.5686329 0.02161905 38.33813405 0.01521032 43.10785389 0.00317001 C46.79623063 -0.00411677 50.48455511 -0.0017281 54.17293358 0.0034256 C55.92894709 0.00474808 57.68496555 0.00316424 59.44097328 -0.00153351 C69.42785779 -0.0223577 78.92141699 0.33847477 88.75520325 2.27105713 C88.00520325 7.02105713 88.00520325 7.02105713 85.75520325 9.27105713 C82.90943157 9.46977009 80.16095919 9.54373815 77.31404114 9.52984619 C76.00409935 9.53510315 76.00409935 9.53510315 74.66769409 9.54046631 C71.77100251 9.54929343 68.87455372 9.54343052 65.9778595 9.53668213 C63.97008212 9.53802862 61.96230506 9.53996902 59.95452881 9.54248047 C55.74197797 9.54543316 51.52951183 9.54112987 47.31697083 9.53179932 C41.91177906 9.52041205 36.50678605 9.52695877 31.1016016 9.53894424 C26.95383197 9.54616517 22.80610959 9.54387371 18.65833855 9.53868866 C16.66519078 9.53735243 14.67203875 9.53899895 12.67889595 9.54364777 C9.89440141 9.54871597 7.11023029 9.54099824 4.32575989 9.52984619 C3.49812134 9.53389465 2.67048279 9.53794312 1.81776428 9.54211426 C-2.0585406 9.51329319 -3.94418624 9.47146414 -7.24479675 7.27105713 C-7.55729675 4.77105713 -7.55729675 4.77105713 -7.24479675 2.27105713 C-4.77497892 -0.19876071 -3.37091096 0.02856575 0 0 Z " fill="#EFF2F4" transform="translate(139.2447967529297,19.72894287109375)"/>
<path d="M0 0 C4.875 0.875 4.875 0.875 6 2 C5.62056512 6.09789669 5.30694043 8.53958935 3 12 C2.54808289 13.01395844 2.54808289 13.01395844 2.08703613 14.04840088 C0.09410139 17.62639574 -3.2135145 18.79269001 -7 20 C-10.91939125 20.50604844 -14.77228381 20.46804371 -18.71875 20.390625 C-19.81723267 20.38496521 -20.91571533 20.37930542 -22.04748535 20.37347412 C-25.5321132 20.35120753 -29.01568656 20.30102752 -32.5 20.25 C-34.87238091 20.22992252 -37.24477805 20.21167394 -39.6171875 20.1953125 C-45.41186034 20.1513743 -51.20575181 20.08241272 -57 20 C-57 17.03 -57 14.06 -57 11 C-57.99 10.67 -58.98 10.34 -60 10 C-59.40388916 9.99857498 -58.80777832 9.99714996 -58.19360352 9.99568176 C-51.96340503 9.97592512 -45.73417845 9.921524 -39.50439453 9.84741211 C-37.18252547 9.82428077 -34.86055221 9.80984788 -32.53857422 9.80444336 C-29.19172594 9.79511866 -25.8465057 9.75404804 -22.5 9.70703125 C-20.95421265 9.71293022 -20.95421265 9.71293022 -19.37719727 9.71894836 C-12.68224321 9.58481134 -8.17953506 8.35171825 -3 4 C-1.04591976 1.87860167 -1.04591976 1.87860167 0 0 Z " fill="#213C4F" transform="translate(219,38)"/>
<path d="M0 0 C11.32209581 4.99649011 18.49471699 20.44027012 22.765625 31.3515625 C24.44039431 36.30167178 25.94340857 41.2870606 27.375 46.3125 C27.65037598 47.25601318 27.92575195 48.19952637 28.20947266 49.17163086 C29.67276692 54.53466612 30.44000466 58.58047509 29 64 C26.9375 66.4375 26.9375 66.4375 25 68 C23.13341309 65.20011963 22.52521877 63.63918936 21.7734375 60.45703125 C17.52338499 43.26782757 11.73654319 26.602814 -1.1953125 13.83203125 C-3.18982736 11.80729647 -3.47273309 10.72421235 -4 8 C-4.66 7.01 -5.32 6.02 -6 5 C-4.02 3.35 -2.04 1.7 0 0 Z " fill="#21384D" transform="translate(241,29)"/>
<path d="M0 0 C-1.04514302 3.76251488 -2.49178178 6.07209945 -5.83117676 8.17510986 C-11.00513724 10.14297377 -16.83538991 9.52232629 -22.296875 9.4609375 C-23.69598216 9.45855087 -25.09509256 9.45764822 -26.49420166 9.4581604 C-29.41609968 9.45504229 -32.33750355 9.43854747 -35.25927734 9.41162109 C-39.00767555 9.37751597 -42.75553505 9.36999659 -46.50407028 9.37151146 C-49.38823606 9.37096844 -52.27228368 9.36001434 -55.15641022 9.34550858 C-56.53912717 9.3391398 -57.92185749 9.33520149 -59.30458832 9.33372116 C-61.23142813 9.32939632 -63.15821798 9.31032511 -65.08496094 9.29052734 C-66.18161072 9.28290375 -67.2782605 9.27528015 -68.40814209 9.26742554 C-71 9 -71 9 -73 7 C-72.44444444 2.44444444 -72.44444444 2.44444444 -71 1 C-69.04356305 0.87632269 -67.08270987 0.82203821 -65.12255859 0.79467773 C-63.23457047 0.7647599 -63.23457047 0.7647599 -61.30844116 0.73423767 C-59.92177471 0.71723924 -58.53510677 0.70036096 -57.1484375 0.68359375 C-55.73173425 0.66301645 -54.31503703 0.64201977 -52.89834595 0.62062073 C-49.15607776 0.56529359 -45.41375264 0.51596695 -41.67138672 0.46777344 C-37.88633804 0.41787486 -34.10137999 0.36188249 -30.31640625 0.30664062 C-24.7622451 0.2268028 -19.20806401 0.14893573 -13.65380859 0.07592773 C-12.53541595 0.06117905 -11.41702332 0.04643036 -10.26473999 0.03123474 C-6.84296339 -0.00150242 -3.42191201 -0.00526521 0 0 Z " fill="#F3F6F7" transform="translate(218,38)"/>
<path d="M0 0 C7.875 0.875 7.875 0.875 9 2 C9.08726223 3.78071246 9.10699041 5.5648314 9.09765625 7.34765625 C9.09443359 8.42724609 9.09121094 9.50683594 9.08789062 10.61914062 C9.07951172 11.75544922 9.07113281 12.89175781 9.0625 14.0625 C9.05798828 15.20267578 9.05347656 16.34285156 9.04882812 17.51757812 C9.03699747 20.34510351 9.0205141 23.1725264 9 26 C-1.07299068 26.11773625 -10.95296659 25.83725278 -21 25 C-21 20.38 -21 15.76 -21 11 C-10.605 10.505 -10.605 10.505 0 10 C0 6.7 0 3.4 0 0 Z " fill="#9BC6D0" transform="translate(166,205)"/>
<path d="M0 0 C7.51161884 0.0933356 15.02290771 0.19938446 22.53417969 0.31738281 C25.09109537 0.3557398 27.64806625 0.39058062 30.20507812 0.421875 C33.87389909 0.46737976 37.54233773 0.5253981 41.2109375 0.5859375 C42.9344191 0.60326431 42.9344191 0.60326431 44.69271851 0.62094116 C45.7536673 0.64081085 46.81461609 0.66068054 47.90771484 0.68115234 C48.84481293 0.69447601 49.78191101 0.70779968 50.74740601 0.7215271 C53 1 53 1 55 3 C55.125 6.125 55.125 6.125 55 9 C52.47255912 10.26372044 50.73619692 10.12022795 47.90771484 10.11352539 C46.31629166 10.11341209 46.31629166 10.11341209 44.69271851 10.11329651 C42.96923691 10.10555458 42.96923691 10.10555458 41.2109375 10.09765625 C40.03737701 10.0962413 38.86381653 10.09482635 37.6546936 10.09336853 C33.89477015 10.08775689 30.13490555 10.07520238 26.375 10.0625 C23.83073002 10.0574865 21.28645912 10.05292333 18.7421875 10.04882812 C12.49476888 10.03778367 6.24739443 10.02051119 0 10 C0 6.7 0 3.4 0 0 Z " fill="#A1D3DC" transform="translate(121,272)"/>
<path d="M0 0 C13.2 0 26.4 0 40 0 C40.495 5.445 40.495 5.445 41 11 C40 12 40 12 36.21459961 12.11352539 C34.52717271 12.11336622 32.83974095 12.10766917 31.15234375 12.09765625 C29.82270348 12.09553383 29.82270348 12.09553383 28.46620178 12.09336853 C25.62326746 12.08775215 22.78041069 12.07519691 19.9375 12.0625 C18.01497509 12.05748711 16.09244896 12.05292384 14.16992188 12.04882812 C9.44658451 12.03777741 4.72330542 12.02050183 0 12 C0 8.04 0 4.08 0 0 Z " fill="#95CED7" transform="translate(121,296)"/>
<path d="M0 0 C12.54 0 25.08 0 38 0 C37.67 0.99 37.34 1.98 37 3 C36.34 3 35.68 3 35 3 C34.67 4.98 34.34 6.96 34 9 C33.34 9 32.68 9 32 9 C32 10.32 32 11.64 32 13 C16.16 13.495 16.16 13.495 0 14 C0 9.38 0 4.76 0 0 Z " fill="#A5D8DF" transform="translate(121,128)"/>
<path d="M0 0 C10.3864793 -0.13430792 20.64305688 0.23785964 31 1 C30.67 4.96 30.34 8.92 30 13 C20.1 13 10.2 13 0 13 C0 8.71 0 4.42 0 0 Z " fill="#A9D6DD" transform="translate(145,77)"/>
<path d="M0 0 C19.3271028 -0.3364486 19.3271028 -0.3364486 26 3 C26 6.96 26 10.92 26 15 C17.04284021 16.42177139 9.95500193 15.6565865 2 11 C0 9 0 9 -0.1953125 6.8359375 C-0.17210937 6.02382812 -0.14890625 5.21171875 -0.125 4.375 C-0.10695312 3.55773437 -0.08890625 2.74046875 -0.0703125 1.8984375 C-0.04710937 1.27195313 -0.02390625 0.64546875 0 0 Z " fill="#ABD4DC" transform="translate(146,242)"/>
<path d="M0 0 C0 4.06032218 -1.35156773 7.32592246 -2.8125 11.09765625 C-5.16929701 17.29406838 -7.03724345 23.55681715 -8.8125 29.9375 C-10.91702227 37.40272502 -13.11761939 44.82602821 -15.5625 52.1875 C-15.83102783 53.0427124 -16.09955566 53.8979248 -16.3762207 54.77905273 C-18.37774401 60.64455305 -18.37774401 60.64455305 -21.71484375 62.55078125 C-22.46894531 62.69902344 -23.22304687 62.84726562 -24 63 C-23.08730048 48.6249825 -19.44599946 35.84949782 -13 23 C-12.24596775 21.37355618 -11.4976762 19.74444354 -10.75390625 18.11328125 C-10.36098389 17.25847168 -9.96806152 16.40366211 -9.56323242 15.52294922 C-8.78645132 13.83276802 -8.0142779 12.14045958 -7.24731445 10.44580078 C-5.30658669 6.28494255 -3.59843533 3.00412362 0 0 Z " fill="#183347" transform="translate(191,300)"/>
<path d="M0 0 C5.28 0 10.56 0 16 0 C16 5.28 16 10.56 16 16 C10.72 16 5.44 16 0 16 C0 10.72 0 5.44 0 0 Z " fill="#F1F4F5" transform="translate(62,127)"/>
<path d="M0 0 C5.28 0 10.56 0 16 0 C16 5.28 16 10.56 16 16 C10.72 16 5.44 16 0 16 C0 10.72 0 5.44 0 0 Z " fill="#F3F6F7" transform="translate(91,101)"/>
<path d="M0 0 C4.95 0 9.9 0 15 0 C15 5.28 15 10.56 15 16 C10.05 16 5.1 16 0 16 C0 10.72 0 5.44 0 0 Z " fill="#95DDE3" transform="translate(91,157)"/>
<path d="M0 0 C0.66 0.66 1.32 1.32 2 2 C0.02 3.65 -1.96 5.3 -4 7 C-3.01 8.65 -2.02 10.3 -1 12 C-3.33333333 12 -5.66666667 12 -8 12 C-10.14536938 14.43762038 -10.14536938 14.43762038 -12.0625 17.5 C-14.09765625 20.59375 -14.09765625 20.59375 -16 23 C-16.99 23 -17.98 23 -19 23 C-18.505 22.278125 -18.01 21.55625 -17.5 20.8125 C-15.92080715 17.85151341 -15.71821688 16.28746971 -16 13 C-18.475 12.01 -18.475 12.01 -21 11 C-19.92578125 9.2421875 -18.8515625 7.484375 -17.77734375 5.7265625 C-17.52082031 5.15679687 -17.26429688 4.58703125 -17 4 C-17.33 3.34 -17.66 2.68 -18 2 C-15.75256955 1.46818825 -13.50192898 0.94992874 -11.25 0.4375 C-9.99703125 0.14746094 -8.7440625 -0.14257812 -7.453125 -0.44140625 C-2.79477612 -1.19496269 -2.79477612 -1.19496269 0 0 Z " fill="#5C6F81" transform="translate(240,27)"/>
<path d="M0 0 C4.95 0 9.9 0 15 0 C15 4.95 15 9.9 15 15 C10.05 15 5.1 15 0 15 C0 10.05 0 5.1 0 0 Z " fill="#99D6DF" transform="translate(120,188)"/>
<path d="M0 0 C4.95 0 9.9 0 15 0 C15 4.95 15 9.9 15 15 C10.05 15 5.1 15 0 15 C0 10.05 0 5.1 0 0 Z " fill="#F9FBFB" transform="translate(55,187)"/>
<path d="M0 0 C4.95 0 9.9 0 15 0 C15 4.95 15 9.9 15 15 C10.05 15 5.1 15 0 15 C0 10.05 0 5.1 0 0 Z " fill="#95D1D9" transform="translate(120,50)"/>
<path d="M0 0 C4.95 0 9.9 0 15 0 C15 4.95 15 9.9 15 15 C10.05 15 5.1 15 0 15 C0 10.05 0 5.1 0 0 Z " fill="#F5F8F9" transform="translate(91,20)"/>
<path d="M0 0 C6.27 0 12.54 0 19 0 C19 9 19 9 17 12 C14.04935852 12.2208564 11.31631769 12.28060989 8.375 12.1875 C7.57320313 12.17396484 6.77140625 12.16042969 5.9453125 12.14648438 C3.96325622 12.11109051 1.98154449 12.05728234 0 12 C0 8.04 0 4.08 0 0 Z " fill="#3B444C" transform="translate(0,0)"/>
<path d="M0 0 C7.26 0 14.52 0 22 0 C21.01 3.3 20.02 6.6 19 10 C4.32758621 12.55172414 4.32758621 12.55172414 -1 9 C-1.4375 2.875 -1.4375 2.875 0 0 Z " fill="#B8DFE4" transform="translate(146,103)"/>
<path d="M0 0 C4.95 0 9.9 0 15 0 C15 4.62 15 9.24 15 14 C10.05 14 5.1 14 0 14 C0 9.38 0 4.76 0 0 Z " fill="#F7FAFA" transform="translate(91,293)"/>
<path d="M0 0 C4.95 0 9.9 0 15 0 C15 4.62 15 9.24 15 14 C10.05 14 5.1 14 0 14 C0 9.38 0 4.76 0 0 Z " fill="#9DDEE5" transform="translate(91,215)"/>
<path d="M0 0 C4.62 0 9.24 0 14 0 C14 4.95 14 9.9 14 15 C9.38 15 4.76 15 0 15 C0 10.05 0 5.1 0 0 Z " fill="#9EDAE2" transform="translate(121,76)"/>
<path d="M0 0 C4.95 0 9.9 0 15 0 C15 4.62 15 9.24 15 14 C10.05 14 5.1 14 0 14 C0 9.38 0 4.76 0 0 Z " fill="#F7FAFA" transform="translate(55,49)"/>
<path d="M0 0 C4.95 0 9.9 0 15 0 C16.94250868 3.88501735 16.65349557 8.74294555 17 13 C11.39 13 5.78 13 0 13 C0 8.71 0 4.42 0 0 Z " fill="#A2D5DD" transform="translate(146,217)"/>
<path d="M0 0 C4.62 0 9.24 0 14 0 C14 4.62 14 9.24 14 14 C7.07 13.505 7.07 13.505 0 13 C0 8.71 0 4.42 0 0 Z " fill="#9CD7DD" transform="translate(120,243)"/>
<path d="M0 0 C2.3125 -0.36328125 2.3125 -0.36328125 5 -0.3125 C5.886875 -0.30863281 6.77375 -0.30476562 7.6875 -0.30078125 C10 0 10 0 12 2 C12.1953125 4.6015625 12.1953125 4.6015625 12.125 7.625 C12.10695313 8.62789062 12.08890625 9.63078125 12.0703125 10.6640625 C12.03550781 11.82035156 12.03550781 11.82035156 12 13 C9.35559361 13.8814688 7.71939248 14.16174818 5 14.1875 C4.319375 14.20167969 3.63875 14.21585938 2.9375 14.23046875 C1 14 1 14 -2 12 C-2.36328125 9.94140625 -2.36328125 9.94140625 -2.3125 7.5625 C-2.30863281 6.78003906 -2.30476563 5.99757812 -2.30078125 5.19140625 C-2 3 -2 3 0 0 Z " fill="#CCE9EC" transform="translate(30,215)"/>
<path d="M0 0 C4.62 0 9.24 0 14 0 C14 4.29 14 8.58 14 13 C4.8203125 13.1953125 4.8203125 13.1953125 2 13 C0 11 0 11 -0.1953125 8.3984375 C-0.13020833 5.59895833 -0.06510417 2.79947917 0 0 Z " fill="#98CDD6" transform="translate(121,216)"/>
<path d="M0 0 C3.35286458 0.03255208 6.70572917 0.06510417 10.05859375 0.09765625 C10.05859375 4.38765625 10.05859375 8.67765625 10.05859375 13.09765625 C8.11984375 13.11828125 6.18109375 13.13890625 4.18359375 13.16015625 C3.09304687 13.17175781 2.0025 13.18335937 0.87890625 13.1953125 C-1.94140625 13.09765625 -1.94140625 13.09765625 -3.94140625 12.09765625 C-3.96827904 10.28523573 -3.9877434 8.47270392 -4.00390625 6.66015625 C-4.01550781 5.65082031 -4.02710937 4.64148438 -4.0390625 3.6015625 C-3.89749299 -0.02827964 -3.67773118 0.12210263 0 0 Z " fill="#F6F8F8" transform="translate(31.94140625,101.90234375)"/>
<path d="M0 0 C3.35286458 0.03255208 6.70572917 0.06510417 10.05859375 0.09765625 C10.05859375 4.38765625 10.05859375 8.67765625 10.05859375 13.09765625 C5.43859375 13.09765625 0.81859375 13.09765625 -3.94140625 13.09765625 C-4.0390625 3.8203125 -4.0390625 3.8203125 -3.94140625 1.09765625 C-2.94140625 0.09765625 -2.94140625 0.09765625 0 0 Z " fill="#91C1CE" transform="translate(124.94140625,153.90234375)"/>
<path d="M0 0 C0.89847656 0.00257813 1.79695313 0.00515625 2.72265625 0.0078125 C3.61855469 0.00523437 4.51445313 0.00265625 5.4375 0 C7.78515625 0.1328125 7.78515625 0.1328125 9.78515625 1.1328125 C9.78515625 5.0928125 9.78515625 9.0528125 9.78515625 13.1328125 C5.49515625 13.1328125 1.20515625 13.1328125 -3.21484375 13.1328125 C-3.3125 3.85546875 -3.3125 3.85546875 -3.21484375 1.1328125 C-2.21484375 0.1328125 -2.21484375 0.1328125 0 0 Z " fill="#AADFE3" transform="translate(31.21484375,157.8671875)"/>
<path d="M0 0 C4.62 0 9.24 0 14 0 C14 3.3 14 6.6 14 10 C9.38 10 4.76 10 0 10 C0 6.7 0 3.4 0 0 Z " fill="#F6F9F7" transform="translate(55,267)"/>
<path d="M0 0 C0.80308594 0.01417969 1.60617188 0.02835937 2.43359375 0.04296875 C3.64208984 0.05263672 3.64208984 0.05263672 4.875 0.0625 C6.87109375 0.23046875 6.87109375 0.23046875 7.87109375 1.23046875 C7.96933312 2.89475926 8.00083006 4.56328806 7.99609375 6.23046875 C7.99867188 7.13796875 8.00125 8.04546875 8.00390625 8.98046875 C7.87109375 11.23046875 7.87109375 11.23046875 6.87109375 12.23046875 C-0.40655862 12.8173762 -0.40655862 12.8173762 -3.12890625 10.60546875 C-4.38844792 7.61405727 -4.47843583 5.44614091 -4.12890625 2.23046875 C-2.12890625 0.23046875 -2.12890625 0.23046875 0 0 Z " fill="#9AD0D7" transform="translate(125.12890625,102.76953125)"/>
<path d="M0 0 C1.485 0.99 1.485 0.99 3 2 C5.71808475 2.21691556 8.34249007 2.3249269 11.0625 2.34375 C11.85019775 2.3583728 12.63789551 2.37299561 13.44946289 2.38806152 C15.9662573 2.43455802 18.48297264 2.46876541 21 2.5 C24.31279379 2.54110951 27.62502887 2.59475736 30.9375 2.65625 C31.70006104 2.6615271 32.46262207 2.6668042 33.24829102 2.67224121 C37.02168303 2.74344939 38.78370176 2.85580117 42 5 C38.37 5.66 34.74 6.32 31 7 C30.95101562 8.20398438 30.90203125 9.40796875 30.8515625 10.6484375 C30.77653657 12.22398198 30.70098867 13.79950166 30.625 15.375 C30.57859375 16.56609375 30.57859375 16.56609375 30.53125 17.78125 C30.2265625 23.7734375 30.2265625 23.7734375 28 26 C27.79938564 24.37656687 27.6154225 22.75107652 27.4375 21.125 C27.33308594 20.22007813 27.22867188 19.31515625 27.12109375 18.3828125 C26.95933683 13.86405453 27.46776067 9.48324222 28 5 C26.9941687 5.07686035 26.9941687 5.07686035 25.96801758 5.15527344 C22.91731751 5.37579962 19.86544287 5.56319726 16.8125 5.75 C15.22985352 5.87181641 15.22985352 5.87181641 13.61523438 5.99609375 C5.76911474 6.44161474 5.76911474 6.44161474 1.76171875 4.140625 C0 2 0 2 0 0 Z " fill="#5A6E7F" transform="translate(156,64)"/>
<path d="M0 0 C3.96 0 7.92 0 12 0 C12 3.3 12 6.6 12 10 C8.04 10 4.08 10 0 10 C0 6.7 0 3.4 0 0 Z " fill="#ACD6DC" transform="translate(63,243)"/>
<path d="M0 0 C0.33 0 0.66 0 1 0 C1 13.53 1 27.06 1 41 C4.465 40.505 4.465 40.505 8 40 C8.33 36.37 8.66 32.74 9 29 C9.33 29 9.66 29 10 29 C10 35.93 10 42.86 10 50 C8.02 48.68 6.04 47.36 4 46 C2.68 45.67 1.36 45.34 0 45 C0 30.15 0 15.3 0 0 Z " fill="#446076" transform="translate(175,189)"/>
<path d="M0 0 C-0.30921884 1.45903258 -0.62248799 2.91720722 -0.9375 4.375 C-1.19853516 5.59316406 -1.19853516 5.59316406 -1.46484375 6.8359375 C-2 9 -2 9 -3 11 C-6.62816269 12.400189 -10.41475583 12.09801152 -14.25 12.0625 C-15.51328125 12.05347656 -16.7765625 12.04445313 -18.078125 12.03515625 C-19.04234375 12.02355469 -20.0065625 12.01195313 -21 12 C-21 11.67 -21 11.34 -21 11 C-15.06 10.505 -15.06 10.505 -9 10 C-9 7.36 -9 4.72 -9 2 C-15.93 1.505 -15.93 1.505 -23 1 C-23 0.67 -23 0.34 -23 0 C-19.54210946 -0.19635974 -16.08367803 -0.38058252 -12.625 -0.5625 C-11.64015625 -0.61857422 -10.6553125 -0.67464844 -9.640625 -0.73242188 C-8.69960937 -0.78076172 -7.75859375 -0.82910156 -6.7890625 -0.87890625 C-5.48509521 -0.94960327 -5.48509521 -0.94960327 -4.15478516 -1.02172852 C-2 -1 -2 -1 0 0 Z " fill="#31465A" transform="translate(192,115)"/>
<path d="M0 0 C6.81987029 0.43300764 11.91643021 1.90787824 18 5 C17.34 5.66 16.68 6.32 16 7 C14.68 6.34 13.36 5.68 12 5 C9.37613513 8.06117568 9 8.73173127 9 13 C7.68 13 6.36 13 5 13 C4.67 14.32 4.34 15.64 4 17 C3.34 16.01 2.68 15.02 2 14 C-0.05003955 12.80767387 -0.05003955 12.80767387 -2 12 C-0.35 12 1.3 12 3 12 C2.9175 11.0925 2.835 10.185 2.75 9.25 C3 6 3 6 5 3.625 C5.66 3.08875 6.32 2.5525 7 2 C4.69 1.67 2.38 1.34 0 1 C0 0.67 0 0.34 0 0 Z " fill="#4A6074" transform="translate(172,260)"/>
<path d="M0 0 C0.59554687 0.22042969 1.19109375 0.44085938 1.8046875 0.66796875 C1.40819337 2.46420731 0.98675298 4.2549531 0.5546875 6.04296875 C0.20664063 7.53957031 0.20664063 7.53957031 -0.1484375 9.06640625 C-1.1953125 11.66796875 -1.1953125 11.66796875 -3.3046875 13.01953125 C-3.92859375 13.23351562 -4.5525 13.4475 -5.1953125 13.66796875 C-6.8453125 12.34796875 -8.4953125 11.02796875 -10.1953125 9.66796875 C-8.63343218 5.60707993 -4.82747362 -0.73013391 0 0 Z " fill="#DAE0E5" transform="translate(161.1953125,337.33203125)"/>
<path d="M0 0 C1.65322266 0.01740234 1.65322266 0.01740234 3.33984375 0.03515625 C4.99693359 0.04869141 4.99693359 0.04869141 6.6875 0.0625 C7.54214844 0.07410156 8.39679688 0.08570313 9.27734375 0.09765625 C9.27734375 0.42765625 9.27734375 0.75765625 9.27734375 1.09765625 C7.62734375 1.09765625 5.97734375 1.09765625 4.27734375 1.09765625 C4.58658589 3.20230418 4.89984935 5.30636155 5.21484375 7.41015625 C5.38886719 8.58191406 5.56289062 9.75367188 5.7421875 10.9609375 C6.19827406 14.11407028 6.19827406 14.11407028 7.27734375 17.09765625 C3.64734375 16.43765625 0.01734375 15.77765625 -3.72265625 15.09765625 C-3.72265625 14.76765625 -3.72265625 14.43765625 -3.72265625 14.09765625 C-2.07265625 14.09765625 -0.42265625 14.09765625 1.27734375 14.09765625 C1.21739053 12.30505493 1.12861965 10.5133983 1.02734375 8.72265625 C0.9809375 7.72492188 0.93453125 6.7271875 0.88671875 5.69921875 C0.5557349 2.94500855 0.5557349 2.94500855 -1.76953125 1.74609375 C-2.4140625 1.53210938 -3.05859375 1.318125 -3.72265625 1.09765625 C-2.72265625 0.09765625 -2.72265625 0.09765625 0 0 Z " fill="#D9ECEE" transform="translate(170.72265625,242.90234375)"/>
<path d="M0 0 C0.25 7.625 0.25 7.625 -2 11 C-5.125 11.6875 -5.125 11.6875 -8 12 C-8.0270043 10.54176788 -8.04639787 9.08339325 -8.0625 7.625 C-8.07410156 6.81289062 -8.08570313 6.00078125 -8.09765625 5.1640625 C-8 3 -8 3 -7 1 C-2.2 0 -2.2 0 0 0 Z " fill="#86A0AD" transform="translate(154,141)"/>
<path d="M0 0 C0.33 3.96 0.66 7.92 1 12 C-0.98 12 -2.96 12 -5 12 C-7 10 -7 10 -7.1953125 8.0546875 C-7.13020833 6.03645833 -7.06510417 4.01822917 -7 2 C-1.125 0 -1.125 0 0 0 Z " fill="#AED1DC" transform="translate(153,151)"/>
<path d="M0 0 C2.31 0 4.62 0 7 0 C5.8553125 0.7734375 5.8553125 0.7734375 4.6875 1.5625 C1.46320847 4.48685744 0.51265835 6.94332535 -1 11 C-1.55538725 12.31552556 -2.11765153 13.62817375 -2.6875 14.9375 C-3.120625 15.948125 -3.55375 16.95875 -4 18 C-4.33 18 -4.66 18 -5 18 C-7.125 11.25 -7.125 11.25 -6 9 C-5.34 9 -4.68 9 -4 9 C-3.67 7.02 -3.34 5.04 -3 3 C-2.34 3 -1.68 3 -1 3 C-0.67 2.01 -0.34 1.02 0 0 Z " fill="#DFEDED" transform="translate(159,128)"/>
<path d="M0 0 C4.95 0 9.9 0 15 0 C15 0.33 15 0.66 15 1 C13.39125 1.0928125 13.39125 1.0928125 11.75 1.1875 C7.86468039 1.66145959 7.86468039 1.66145959 5.5625 4.5625 C5.046875 5.366875 4.53125 6.17125 4 7 C7.63 7.33 11.26 7.66 15 8 C15 8.33 15 8.66 15 9 C12.89611431 9.05402274 10.79183286 9.09280256 8.6875 9.125 C6.92986328 9.15980469 6.92986328 9.15980469 5.13671875 9.1953125 C2 9 2 9 -1 7 C-0.67 4.69 -0.34 2.38 0 0 Z " fill="#81A5B7" transform="translate(126,174)"/>
<path d="M0 0 C6.75 -0.125 6.75 -0.125 9 1 C9.83984375 3.26171875 9.83984375 3.26171875 10 6 C8.56640625 8.45703125 8.56640625 8.45703125 6.5625 10.8125 C5.57443359 11.99779297 5.57443359 11.99779297 4.56640625 13.20703125 C3.79103516 14.09455078 3.79103516 14.09455078 3 15 C2.34 14.34 1.68 13.68 1 13 C1.495 12.443125 1.99 11.88625 2.5 11.3125 C4.24754367 8.61837017 4.26218749 7.14624993 4 4 C1.525 3.01 1.525 3.01 -1 2 C-0.67 1.34 -0.34 0.68 0 0 Z " fill="#30526C" transform="translate(220,36)"/>
<path d="M0 0 C2.33294775 -0.04241723 4.66702567 -0.04092937 7 0 C8 1 8 1 8.1875 3.4375 C8 6 8 6 6 8 C3.5 8.25 3.5 8.25 1 8 C0.34 7.34 -0.32 6.68 -1 6 C-0.625 2.875 -0.625 2.875 0 0 Z " fill="#A9E4E9" transform="translate(94,191)"/>
<path d="M0 0 C2.97 0.33 5.94 0.66 9 1 C7.34916877 3.4456759 6.52854725 4.57581825 4 6 C-0.36272089 6.44894828 -4.62919727 6.28797383 -9 6 C-8.67 5.01 -8.34 4.02 -8 3 C-6.15234375 2.26953125 -6.15234375 2.26953125 -3.9375 1.8125 C-3.20402344 1.65394531 -2.47054687 1.49539062 -1.71484375 1.33203125 C-1.14894531 1.22246094 -0.58304688 1.11289063 0 1 C0 0.67 0 0.34 0 0 Z " fill="#C6CFD2" transform="translate(195,67)"/>
<path d="M0 0 C2.5625 0.1875 2.5625 0.1875 4.5625 2.1875 C4.75 4.75 4.75 4.75 4.5625 7.1875 C3.5625 8.1875 3.5625 8.1875 0.625 8.375 C-2.4375 8.1875 -2.4375 8.1875 -4.4375 6.1875 C-3.71780303 0.28598485 -3.71780303 0.28598485 0 0 Z " fill="#ADDCE5" transform="translate(66.4375,160.8125)"/>
<path d="M0 0 C2.33294775 -0.04241723 4.66702567 -0.04092937 7 0 C8 1 8 1 8.125 4 C8 7 8 7 7 8 C4.66702567 8.04092937 2.33294775 8.04241723 0 8 C0 5.36 0 2.72 0 0 Z " fill="#A7E3EA" transform="translate(63,79)"/>
<path d="M0 0 C2.33944736 0.28730055 4.6739143 0.61936779 7 1 C7.04254356 2.99954746 7.04080783 5.00041636 7 7 C6 8 6 8 2.4375 8.0625 C1.303125 8.041875 0.16875 8.02125 -1 8 C-1.04241723 5.66705225 -1.04092937 3.33297433 -1 1 C-0.67 0.67 -0.34 0.34 0 0 Z " fill="#A8E0E7" transform="translate(99,132)"/>
<path d="M0 0 C0.33 0 0.66 0 1 0 C1.08114106 1.77007714 1.13925505 3.54122098 1.1875 5.3125 C1.23970703 6.79169922 1.23970703 6.79169922 1.29296875 8.30078125 C1 11 1 11 -0.51171875 12.85546875 C-1.00285156 13.23316406 -1.49398437 13.61085937 -2 14 C-2.99 13.67 -3.98 13.34 -5 13 C-5 12.34 -5 11.68 -5 11 C-9.95 11 -14.9 11 -20 11 C-20 15.29 -20 19.58 -20 24 C-20.33 24 -20.66 24 -21 24 C-21 19.38 -21 14.76 -21 10 C-10.605 9.505 -10.605 9.505 0 9 C0 6.03 0 3.06 0 0 Z " fill="#91B2BF" transform="translate(166,206)"/>
<path d="M0 0 C2.97 0.33 5.94 0.66 9 1 C9 3.97 9 6.94 9 10 C7.02 10 5.04 10 3 10 C3 7.03 3 4.06 3 1 C2.01 0.67 1.02 0.34 0 0 Z " fill="#465E6F" transform="translate(159,48)"/>
<path d="M0 0 C2.31 0 4.62 0 7 0 C7 2.31 7 4.62 7 7 C4.69 7 2.38 7 0 7 C0 4.69 0 2.38 0 0 Z " fill="#9FDFE6" transform="translate(93,55)"/>
<path d="M0 0 C0 3.46656424 -0.84702873 5.72313427 -2 9 C-2.54405461 10.62420207 -3.08563449 12.24923476 -3.625 13.875 C-4.08333333 15.25 -4.54166667 16.625 -5 18 C-5.33 16.68 -5.66 15.36 -6 14 C-6.66 14 -7.32 14 -8 14 C-6.42383191 8.48341169 -4.07768576 4.07768576 0 0 Z " fill="#2A3741" transform="translate(191,300)"/>
<path d="M0 0 C2.31 0.33 4.62 0.66 7 1 C7.042721 2.66611905 7.04063832 4.33382885 7 6 C6 7 6 7 2.9375 7.0625 C1.4834375 7.0315625 1.4834375 7.0315625 0 7 C0 4.69 0 2.38 0 0 Z " fill="#A5D6E1" transform="translate(64,220)"/>
<path d="M0 0 C0.556875 0.268125 1.11375 0.53625 1.6875 0.8125 C0.69094362 4.49975859 0.0292689 5.60601462 -3.3125 7.625 C-6.3125 8.8125 -6.3125 8.8125 -8.3125 8.8125 C-7.82204356 4.398392 -4.79279276 -0.38860482 0 0 Z " fill="#C5CFD7" transform="translate(161.3125,337.1875)"/>
<path d="M0 0 C5.28 0 10.56 0 16 0 C17.82675419 3.65350838 16.45509168 8.05587212 16 12 C11.38 12 6.76 12 2 12 C2 11.67 2 11.34 2 11 C7.94 10.505 7.94 10.505 14 10 C14 7.36 14 4.72 14 2 C7.07 1.505 7.07 1.505 0 1 C0 0.67 0 0.34 0 0 Z " fill="#4D657B" transform="translate(169,115)"/>
<path d="M0 0 C2.64 0 5.28 0 8 0 C6.49059532 3.842121 4.46136011 5.78021471 1 8 C-2.55078125 8.171875 -2.55078125 8.171875 -6.3125 7.75 C-7.56675781 7.62109375 -8.82101563 7.4921875 -10.11328125 7.359375 C-11.06589844 7.24078125 -12.01851562 7.1221875 -13 7 C-13 6.67 -13 6.34 -13 6 C-11.66195312 5.94392578 -11.66195312 5.94392578 -10.296875 5.88671875 C-9.12640625 5.82097656 -7.9559375 5.75523438 -6.75 5.6875 C-5.58984375 5.62949219 -4.4296875 5.57148437 -3.234375 5.51171875 C0.10819638 4.98288197 1.5497057 4.26227667 4 2 C2.68 1.34 1.36 0.68 0 0 Z " fill="#E3EAEB" transform="translate(199,67)"/>
<path d="M0 0 C-1.45459431 1.64913882 -2.91379257 3.29421782 -4.375 4.9375 C-5.18710938 5.85402344 -5.99921875 6.77054687 -6.8359375 7.71484375 C-9 10 -9 10 -11 11 C-9.20618557 2.92783505 -9.20618557 2.92783505 -5.5625 0.125 C-3 -1 -3 -1 0 0 Z " fill="#586A7C" transform="translate(200,296)"/>
<path d="M0 0 C2.31 0.33 4.62 0.66 7 1 C7.33 3.64 7.66 6.28 8 9 C6.0625 9.5625 6.0625 9.5625 4 10 C3 9 3 9 2.90234375 7.15234375 C2.93489583 5.1015625 2.96744792 3.05078125 3 1 C2.01 0.67 1.02 0.34 0 0 Z " fill="#5C7283" transform="translate(155,48)"/>
<path d="M0 0 C1.74627478 2.61941217 2.38722388 4.03824877 3 7 C0.36 7.33 -2.28 7.66 -5 8 C-4.34 6.02 -3.68 4.04 -3 2 C-3.99 1.67 -4.98 1.34 -6 1 C-4.02 0.67 -2.04 0.34 0 0 Z " fill="#92A3AE" transform="translate(231,20)"/>
<path d="M0 0 C1.485 0.99 1.485 0.99 3 2 C5.31645338 2.4561825 5.31645338 2.4561825 7.88671875 2.6328125 C8.82451172 2.71660156 9.76230469 2.80039063 10.72851562 2.88671875 C11.70498047 2.96535156 12.68144531 3.04398437 13.6875 3.125 C14.67556641 3.21136719 15.66363281 3.29773438 16.68164062 3.38671875 C19.12054315 3.59879723 21.55984788 3.80291201 24 4 C24 4.33 24 4.66 24 5 C20.93781928 5.27646774 17.8783422 5.52190671 14.8125 5.75 C13.94818359 5.83121094 13.08386719 5.91242188 12.19335938 5.99609375 C7.87774793 6.29372213 5.68857622 6.41124502 1.88671875 4.140625 C0 2 0 2 0 0 Z " fill="#495F71" transform="translate(156,64)"/>
<path d="M0 0 C0.33 0 0.66 0 1 0 C1 5.61 1 11.22 1 17 C-0.32 16.34 -1.64 15.68 -3 15 C-4.65740715 14.62331656 -6.32345271 14.27942455 -8 14 C-8 13.34 -8 12.68 -8 12 C-4.535 11.505 -4.535 11.505 -1 11 C-0.67 7.37 -0.34 3.74 0 0 Z " fill="#375265" transform="translate(184,218)"/>
<path d="M0 0 C1.836369 1.90516669 3.38504986 3.89159287 5 6 C2.125 5.6875 2.125 5.6875 -1 5 C-1.66 4.01 -2.32 3.02 -3 2 C-6.56769552 1.26393501 -6.56769552 1.26393501 -10 1 C-10 0.67 -10 0.34 -10 0 C-2.97124601 -1.43769968 -2.97124601 -1.43769968 0 0 Z " fill="#52677A" transform="translate(139,167)"/>
<path d="M0 0 C6.6 0.6 6.6 0.6 9 3 C6 3 6 3 3 2 C0.37613513 5.06117568 0 5.73173127 0 10 C-0.66 10 -1.32 10 -2 10 C-1.85950482 8.52031676 -1.71245174 7.04125484 -1.5625 5.5625 C-1.48128906 4.73878906 -1.40007812 3.91507812 -1.31640625 3.06640625 C-1 1 -1 1 0 0 Z " fill="#3B5264" transform="translate(181,263)"/>
<path d="M0 0 C0.66 0.33 1.32 0.66 2 1 C2.33 1.99 2.66 2.98 3 4 C3.99 4.66 4.98 5.32 6 6 C6 6.66 6 7.32 6 8 C2.37 7.34 -1.26 6.68 -5 6 C-5 5.67 -5 5.34 -5 5 C-3.35 5 -1.7 5 0 5 C0 3.35 0 1.7 0 0 Z " fill="#C2E2E8" transform="translate(172,252)"/>
<path d="M0 0 C1.23825459 3.71476377 0.70587257 6.18828813 0 10 C-1 11 -1 11 -3.06640625 11.09765625 C-3.89011719 11.08605469 -4.71382812 11.07445313 -5.5625 11.0625 C-6.38878906 11.05347656 -7.21507812 11.04445313 -8.06640625 11.03515625 C-8.70449219 11.02355469 -9.34257812 11.01195313 -10 11 C-10 10.67 -10 10.34 -10 10 C-7.69 10 -5.38 10 -3 10 C-2.814375 8.63875 -2.814375 8.63875 -2.625 7.25 C-2.07890323 4.41029677 -1.42736197 2.47409409 0 0 Z " fill="#DAF3F4" transform="translate(168,103)"/>
<path d="M0 0 C0.33 0 0.66 0 1 0 C2.42857143 8.57142857 2.42857143 8.57142857 0 12 C-0.66 11.01 -1.32 10.02 -2 9 C-4.05003955 7.80767387 -4.05003955 7.80767387 -6 7 C-4.35 7 -2.7 7 -1 7 C-1.020625 6.030625 -1.04125 5.06125 -1.0625 4.0625 C-1 1 -1 1 0 0 Z " fill="#576F82" transform="translate(176,265)"/>
<path d="M0 0 C0 2.85602507 -0.3622683 4.48384316 -1.3125 7.125 C-1.55613281 7.82882813 -1.79976562 8.53265625 -2.05078125 9.2578125 C-3 11 -3 11 -6 12 C-6.33 11.34 -6.66 10.68 -7 10 C-6.67 9.34 -6.34 8.68 -6 8 C-5.34 8 -4.68 8 -4 8 C-3.896875 7.05125 -3.79375 6.1025 -3.6875 5.125 C-3 2 -3 2 0 0 Z " fill="#CBE7E9" transform="translate(159,129)"/>
<path d="M0 0 C1.4370809 -0.05422947 2.87475462 -0.09289723 4.3125 -0.125 C5.11300781 -0.14820312 5.91351563 -0.17140625 6.73828125 -0.1953125 C9 0 9 0 12 2 C8.04 2.66 4.08 3.32 0 4 C0 2.68 0 1.36 0 0 Z " fill="#8899A6" transform="translate(186,67)"/>
<path d="M0 0 C0.66 0.33 1.32 0.66 2 1 C0.02 4.96 -1.96 8.92 -4 13 C-5.28485596 7.86057616 -4.22194431 6.62164416 -2 2 C-1.34 2 -0.68 2 0 2 C0 1.34 0 0.68 0 0 Z " fill="#7797AA" transform="translate(177,304)"/>
<path d="M0 0 C0.33 0 0.66 0 1 0 C1.33 2.64 1.66 5.28 2 8 C0.02 8 -1.96 8 -4 8 C-3.67 6.68 -3.34 5.36 -3 4 C-2.34 4 -1.68 4 -1 4 C-0.67 2.68 -0.34 1.36 0 0 Z " fill="#C4DFE5" transform="translate(152,155)"/>
<path d="M0 0 C0.66 0.99 1.32 1.98 2 3 C2.99 2.34 3.98 1.68 5 1 C5.33 2.32 5.66 3.64 6 5 C3.69 5.66 1.38 6.32 -1 7 C-0.67 4.69 -0.34 2.38 0 0 Z " fill="#93B1BF" transform="translate(147,146)"/>
<path d="M0 0 C6.75 -0.125 6.75 -0.125 9 1 C9.75 3.4375 9.75 3.4375 10 6 C9.34 6.66 8.68 7.32 8 8 C7.608125 7.030625 7.21625 6.06125 6.8125 5.0625 C5.32405113 1.77823609 5.32405113 1.77823609 2.3125 1.125 C1.1678125 1.063125 1.1678125 1.063125 0 1 C0 0.67 0 0.34 0 0 Z " fill="#415F76" transform="translate(220,36)"/>
<path d="M0 0 C0.33 0 0.66 0 1 0 C1.66 3.3 2.32 6.6 3 10 C1.68 10 0.36 10 -1 10 C-1.02689216 8.52093108 -1.04634621 7.04172517 -1.0625 5.5625 C-1.07410156 4.73878906 -1.08570313 3.91507812 -1.09765625 3.06640625 C-1 1 -1 1 0 0 Z " fill="#3F5567" transform="translate(186,116)"/>
<path d="M0 0 C0 4.76123067 -1.76291355 8.84541088 -4 13 C-5.56659619 6.97463002 -5.56659619 6.97463002 -3.953125 4.19921875 C-2.70838944 2.73420696 -1.35934288 1.35934288 0 0 Z " fill="#36434F" transform="translate(191,300)"/>
<path d="M0 0 C-0.33 0.66 -0.66 1.32 -1 2 C-3.28515625 2.6328125 -3.28515625 2.6328125 -6.0625 3.125 C-6.98160156 3.29257813 -7.90070313 3.46015625 -8.84765625 3.6328125 C-9.91306641 3.81457031 -9.91306641 3.81457031 -11 4 C-10.67 3.01 -10.34 2.02 -10 1 C-6.59437148 0.22157062 -3.49234244 -0.09978121 0 0 Z " fill="#A8B5C0" transform="translate(197,69)"/>
<path d="M0 0 C2.0625 0.4375 2.0625 0.4375 4 1 C2.47005208 2.20442708 0.94010417 3.40885417 -0.58984375 4.61328125 C-2.27155077 6.05683091 -2.27155077 6.05683091 -3 9 C-3.66 8.67 -4.32 8.34 -5 8 C-1.125 1.125 -1.125 1.125 0 0 Z " fill="#4B6173" transform="translate(238,28)"/>
<path d="M0 0 C0.66 0 1.32 0 2 0 C2 1.65 2 3.3 2 5 C0.02 5.99 0.02 5.99 -2 7 C-2.125 4.625 -2.125 4.625 -2 2 C-1.34 1.34 -0.68 0.68 0 0 Z " fill="#1C2834" transform="translate(183,314)"/>
<path d="M0 0 C0.33 0.66 0.66 1.32 1 2 C2.32 2 3.64 2 5 2 C4.67 2.99 4.34 3.98 4 5 C1.9375 5.6875 1.9375 5.6875 0 6 C0 4.02 0 2.04 0 0 Z " fill="#3E556A" transform="translate(167,357)"/>
<path d="M0 0 C1.32 0.33 2.64 0.66 4 1 C3.01 2.485 3.01 2.485 2 4 C-0.625 4.1875 -0.625 4.1875 -3 4 C-2.01 2.68 -1.02 1.36 0 0 Z " fill="#A5B3C2" transform="translate(159,337)"/>
<path d="M0 0 C0.66 0.33 1.32 0.66 2 1 C1.34 1.66 0.68 2.32 0 3 C-0.6425235 5.06874034 -0.6425235 5.06874034 -1 7 C-2.32 6.67 -3.64 6.34 -5 6 C-3.35 4.02 -1.7 2.04 0 0 Z " fill="#8DBCCD" transform="translate(134,175)"/>
<path d="M0 0 C1.98 0 3.96 0 6 0 C5.01 0.66 4.02 1.32 3 2 C1.94895617 3.63495707 0.94011682 5.29883624 0 7 C0 4.66666667 0 2.33333333 0 0 Z " fill="#7995A9" transform="translate(126,174)"/>
<path d="M0 0 C0.99 0.33 1.98 0.66 3 1 C2.34 2.32 1.68 3.64 1 5 C0.01 5 -0.98 5 -2 5 C-1.125 1.125 -1.125 1.125 0 0 Z " fill="#1A3A54" transform="translate(171,354)"/>
<path d="M0 0 C1.32 0.33 2.64 0.66 4 1 C2.68 2.32 1.36 3.64 0 5 C-0.99 4.67 -1.98 4.34 -3 4 C-2.01 2.68 -1.02 1.36 0 0 Z " fill="#EFF3F5" transform="translate(232,38)"/>
</svg>
